<svg id="Capa_1" enable-background="new 0 0 512 512" height="512" viewBox="0 0 512 512" width="512" xmlns="http://www.w3.org/2000/svg"><g><path d="m101.83 512-101.83-101.83c1.037 27.405 4.215 55.488 9.522 83.948.786 4.219 4.137 7.573 8.346 8.357 28.47 5.31 56.558 8.488 83.962 9.525z"/><path d="m489.687 265.008-242.695-242.695c-108.614 36.908-187.776 116.072-224.679 224.679l242.696 242.696c108.609-36.905 187.774-116.07 224.678-224.68zm-216.56 52.332c7.883 7.883 7.883 20.663 0 28.546s-20.663 7.883-28.546 0l-24.96-24.96-13.904 13.904c-7.883 7.883-20.663 7.883-28.546 0s-7.883-20.663 0-28.546l13.904-13.904-24.96-24.96c-7.883-7.883-7.883-20.663 0-28.546s20.663-7.883 28.546 0l24.96 24.96 44.213-44.213-24.96-24.96c-7.883-7.883-7.883-20.663 0-28.546s20.663-7.883 28.546 0l24.96 24.96 13.904-13.904c7.883-7.883 20.663-7.883 28.546 0s7.883 20.663 0 28.546l-13.904 13.904 24.96 24.96c7.883 7.883 7.883 20.663 0 28.546s-20.663 7.883-28.546 0l-24.96-24.96-44.213 44.213z"/><path d="m220.306 502.077-210.383-210.383c-4.507 20.713-7.422 41.463-8.963 62.344l157.002 157.002c20.936-1.549 41.746-4.475 62.344-8.963z"/><path d="m291.694 9.923 210.383 210.383c4.509-20.724 7.421-41.453 8.963-62.344l-157.002-157.002c-20.523 1.519-41.358 4.39-62.344 8.963z"/><path d="m512 101.83c-1.037-27.405-4.215-55.488-9.522-83.948-.794-4.264-4.178-7.582-8.346-8.358-28.47-5.309-56.558-8.487-83.962-9.524z"/></g></svg>